<svg width="60" height="73" viewBox="0 0 60 73" fill="none" xmlns="http://www.w3.org/2000/svg">
<path fill-rule="evenodd" clip-rule="evenodd" d="M0.495605 10.4236C0.495605 7.70466 1.58966 5.0971 3.53708 3.17453C5.4845 1.25196 8.12577 0.171875 10.8798 0.171875H41.0395C42.0884 0.17247 43.1222 0.419595 44.0553 0.892812C44.9883 1.36603 45.7939 2.05174 46.4053 2.89324L57.7864 18.5392C58.5907 19.6501 59.025 20.981 59.025 22.3417V62.6141C59.025 65.333 57.9309 67.9406 55.9835 69.8632C54.0361 71.7857 51.3948 72.8658 48.6407 72.8658H10.8798C8.12577 72.8658 5.4845 71.7857 3.53708 69.8632C1.58966 67.9406 0.495605 65.333 0.495605 62.6141V10.4236ZM10.8798 5.76372C8.27434 5.76372 6.15974 7.85134 6.15974 10.4236V62.6141C6.15974 65.1864 8.27434 67.274 10.8798 67.274H48.6407C51.2462 67.274 53.3608 65.1864 53.3608 62.6141V24.9512H41.0885C40.3374 24.9512 39.6171 24.6566 39.086 24.1323C38.5549 23.6079 38.2565 22.8968 38.2565 22.1553V5.76372H10.8798Z" fill="#34B1E8"/>
<path d="M41.4136 41.0626C41.1812 41.3497 40.8938 41.5888 40.5677 41.7661C40.2416 41.9434 39.8834 42.0556 39.5134 42.0961C39.1434 42.1366 38.7689 42.1047 38.4114 42.0022C38.0539 41.8997 37.7203 41.7286 37.4299 41.4988L32.5965 37.6739V50.4979C32.5965 51.2394 32.2981 51.9506 31.767 52.4749C31.2359 52.9992 30.5155 53.2938 29.7644 53.2938C29.0133 53.2938 28.293 52.9992 27.7618 52.4749C27.2307 51.9506 26.9324 51.2394 26.9324 50.4979V37.6739L22.0914 41.4988C21.5045 41.962 20.7553 42.176 20.0086 42.0939C19.2618 42.0117 18.5787 41.6401 18.1095 41.0607C17.6403 40.4814 17.4235 39.7417 17.5067 39.0045C17.5899 38.2673 17.9663 37.5929 18.5532 37.1297L27.9821 29.6813C28.4794 29.2845 29.0986 29.0663 29.738 29.0625H29.7682C30.4479 29.0625 31.0672 29.3011 31.5543 29.6962L40.9718 37.1297C41.2627 37.3591 41.5048 37.6429 41.6845 37.9648C41.8641 38.2867 41.9777 38.6404 42.0187 39.0057C42.0597 39.371 42.0274 39.7407 41.9236 40.0936C41.8198 40.4466 41.6465 40.7758 41.4136 41.0626Z" fill="#34B1E8"/>
</svg>