<svg width="1080" height="1080" viewBox="0 0 1080 1080" fill="none" xmlns="http://www.w3.org/2000/svg">
<path d="M791.281 873.835L618.851 1019.14C604.544 1031.2 582.674 1021.03 582.674 1002.32V63.4223C582.674 47.9787 598.17 37.3417 612.581 42.8924L949.413 172.624C955.308 174.894 959.48 179.683 959.952 185.982C962.074 214.292 963.693 306.578 958.729 528.384C958.7 529.679 958.557 531.007 958.297 532.276C928.161 679.032 837.178 818.053 794.055 871.029C793.21 872.067 792.305 872.973 791.281 873.835Z" fill="#34B1E8"/>
<path d="M288.719 873.835L461.149 1019.14C475.456 1031.2 497.326 1021.03 497.326 1002.32V63.4223C497.326 47.9787 481.83 37.3417 467.419 42.8924L130.587 172.624C124.692 174.894 120.52 179.683 120.048 185.982C117.926 214.292 116.307 306.578 121.271 528.384C121.3 529.679 121.443 531.007 121.703 532.276C151.839 679.032 242.822 818.053 285.945 871.029C286.79 872.067 287.695 872.973 288.719 873.835Z" fill="#34B1E8"/>
</svg>
